<svg width="28" height="30" viewBox="0 0 28 30" fill="none" xmlns="http://www.w3.org/2000/svg">
<mask id="mask0_2132_35614" style="mask-type:luminance" maskUnits="userSpaceOnUse" x="0" y="0" width="28" height="30">
<path d="M27.5674 12.3429H14.42V17.7943H21.9877C21.2823 21.2575 18.3321 23.2456 14.42 23.2456C9.80234 23.2456 6.08258 19.5259 6.08258 14.9082C6.08258 10.2906 9.80234 6.57086 14.42 6.57086C16.4081 6.57086 18.2038 7.27635 19.6148 8.43076L23.7194 4.32618C21.2181 2.14564 18.0115 0.798828 14.42 0.798828C6.59565 0.798828 0.310547 7.08393 0.310547 14.9082C0.310547 22.7326 6.59565 29.0177 14.42 29.0177C21.4747 29.0177 27.8881 23.887 27.8881 14.9082C27.8881 14.0745 27.7598 13.1766 27.5674 12.3429Z" fill="white"/>
</mask>
<g mask="url(#mask0_2132_35614)">
<path d="M-0.972656 23.2451V6.57031L9.93008 14.9077L-0.972656 23.2451Z" fill="#FBBC05"/>
</g>
<mask id="mask1_2132_35614" style="mask-type:luminance" maskUnits="userSpaceOnUse" x="0" y="0" width="28" height="30">
<path d="M27.5674 12.3429H14.42V17.7943H21.9877C21.2823 21.2575 18.3321 23.2456 14.42 23.2456C9.80234 23.2456 6.08258 19.5259 6.08258 14.9082C6.08258 10.2906 9.80234 6.57086 14.42 6.57086C16.4081 6.57086 18.2038 7.27635 19.6148 8.43076L23.7194 4.32618C21.2181 2.14564 18.0115 0.798828 14.42 0.798828C6.59565 0.798828 0.310547 7.08393 0.310547 14.9082C0.310547 22.7326 6.59565 29.0177 14.42 29.0177C21.4747 29.0177 27.8881 23.887 27.8881 14.9082C27.8881 14.0745 27.7598 13.1766 27.5674 12.3429Z" fill="white"/>
</mask>
<g mask="url(#mask1_2132_35614)">
<path d="M-0.972656 6.57034L9.93008 14.9077L14.4194 10.9956L29.8115 8.49435V-0.484375H-0.972656V6.57034Z" fill="#EA4335"/>
</g>
<mask id="mask2_2132_35614" style="mask-type:luminance" maskUnits="userSpaceOnUse" x="0" y="0" width="28" height="30">
<path d="M27.5674 12.3429H14.42V17.7943H21.9877C21.2823 21.2575 18.3321 23.2456 14.42 23.2456C9.80234 23.2456 6.08258 19.5259 6.08258 14.9082C6.08258 10.2906 9.80234 6.57086 14.42 6.57086C16.4081 6.57086 18.2038 7.27635 19.6148 8.43076L23.7194 4.32618C21.2181 2.14564 18.0115 0.798828 14.42 0.798828C6.59565 0.798828 0.310547 7.08393 0.310547 14.9082C0.310547 22.7326 6.59565 29.0177 14.42 29.0177C21.4747 29.0177 27.8881 23.887 27.8881 14.9082C27.8881 14.0745 27.7598 13.1766 27.5674 12.3429Z" fill="white"/>
</mask>
<g mask="url(#mask2_2132_35614)">
<path d="M-0.972656 23.2451L18.2675 8.49435L23.334 9.13568L29.8115 -0.484375V30.2998H-0.972656V23.2451Z" fill="#34A853"/>
</g>
<mask id="mask3_2132_35614" style="mask-type:luminance" maskUnits="userSpaceOnUse" x="0" y="0" width="28" height="30">
<path d="M27.5674 12.3429H14.42V17.7943H21.9877C21.2823 21.2575 18.3321 23.2456 14.42 23.2456C9.80234 23.2456 6.08258 19.5259 6.08258 14.9082C6.08258 10.2906 9.80234 6.57086 14.42 6.57086C16.4081 6.57086 18.2038 7.27635 19.6148 8.43076L23.7194 4.32618C21.2181 2.14564 18.0115 0.798828 14.42 0.798828C6.59565 0.798828 0.310547 7.08393 0.310547 14.9082C0.310547 22.7326 6.59565 29.0177 14.42 29.0177C21.4747 29.0177 27.8881 23.887 27.8881 14.9082C27.8881 14.0745 27.7598 13.1766 27.5674 12.3429Z" fill="white"/>
</mask>
<g mask="url(#mask3_2132_35614)">
<path d="M29.812 30.2998L9.93058 14.9077L7.36523 12.9837L29.812 6.57031V30.2998Z" fill="#4285F4"/>
</g>
</svg>
